<?xml version="1.0" encoding="UTF-8"?>
<svg id="Layer_2" data-name="Layer 2" xmlns="http://www.w3.org/2000/svg" xmlns:xlink="http://www.w3.org/1999/xlink" viewBox="0 0 1178.31 198.6">
  <defs>
    <style>
      .cls-1, .cls-2 {
        fill: #fe7743;
      }

      .cls-3 {
        fill: none;
      }

      .cls-4 {
        fill: #efeeeb;
      }

      .cls-2 {
        fill-rule: evenodd;
      }

      .cls-5 {
        clip-path: url(#clippath);
      }
    </style>
    <clipPath id="clippath">
      <rect class="cls-3" width="202.28" height="198.6"/>
    </clipPath>
  </defs>
  <g id="Layer_1-2" data-name="Layer 1">
    <g class="cls-5">
      <path class="cls-2" d="M26.52,90.33v-16.95L100.9,30.42l74.39,42.96v99.14h-66.58v-82.19H26.52ZM100.9,0L.09,58.19v43.84l96.87,96.87h104.76V58.19L100.9,0Z"/>
    </g>
    <path class="cls-4" d="M275.82,88.79v21.65h-12.98c-9.27,0-16.48-2.26-21.65-6.79-5.17-4.53-7.75-11.92-7.75-22.17v-33.13h-10.17v-21.19h10.17V6.88h25.5v20.29h16.73v21.19h-16.73v33.44c0,2.49.59,4.28,1.79,5.38,1.19,1.08,3.19,1.63,5.98,1.63h9.1Z"/>
    <path class="cls-4" d="M368.48,67.46c0,2.39-.16,4.88-.46,7.46h-57.75c.4,5.18,2.07,9.14,5,11.88,2.94,2.74,6.55,4.1,10.83,4.1,6.36,0,10.78-2.69,13.27-8.06h27.17c-1.41,5.47-3.92,10.4-7.54,14.77s-8.18,7.81-13.65,10.29c-5.47,2.49-11.59,3.73-18.35,3.73-8.17,0-15.44-1.73-21.81-5.21-6.36-3.48-11.33-8.46-14.92-14.92-3.57-6.47-5.35-14.03-5.35-22.69s1.76-16.23,5.29-22.69c3.53-6.47,8.47-11.44,14.83-14.92,6.38-3.48,13.69-5.23,21.96-5.23s15.21,1.7,21.48,5.08c6.26,3.38,11.16,8.2,14.69,14.46,3.54,6.27,5.31,13.58,5.31,21.94ZM342.36,60.75c0-4.38-1.49-7.85-4.48-10.44-2.97-2.59-6.7-3.9-11.19-3.9s-7.89,1.24-10.81,3.73c-2.93,2.49-4.75,6.02-5.46,10.6h31.94Z"/>
    <path class="cls-4" d="M432.65,26.27c9.73,0,17.51,3.16,23.33,9.48,5.83,6.32,8.75,15,8.75,26.04v48.65h-25.38v-45.21c0-5.58-1.45-9.92-4.33-13-2.89-3.08-6.77-4.63-11.65-4.63s-8.76,1.54-11.65,4.63c-2.88,3.08-4.31,7.42-4.31,13v45.21h-25.52V27.17h25.52v11.04c2.58-3.68,6.06-6.59,10.44-8.73,4.39-2.14,9.32-3.21,14.79-3.21Z"/>
    <path class="cls-4" d="M477.41,68.65c0-8.55,1.61-16.06,4.83-22.52,3.23-6.47,7.64-11.44,13.21-14.92,5.57-3.48,11.79-5.23,18.67-5.23,5.86,0,11.01,1.2,15.44,3.58,4.43,2.39,7.84,5.52,10.23,9.4v-11.79h25.52v83.27h-25.52v-11.79c-2.49,3.88-5.95,7.01-10.38,9.4-4.43,2.39-9.58,3.58-15.46,3.58-6.77,0-12.93-1.76-18.5-5.29-5.57-3.53-9.97-8.55-13.21-15.06-3.22-6.53-4.83-14.07-4.83-22.63ZM539.79,68.81c0-6.38-1.77-11.4-5.31-15.08-3.53-3.68-7.83-5.52-12.9-5.52s-9.39,1.82-12.92,5.46c-3.53,3.63-5.29,8.62-5.29,14.98s1.76,11.43,5.29,15.17c3.53,3.72,7.83,5.58,12.92,5.58s9.36-1.84,12.9-5.52c3.54-3.68,5.31-8.7,5.31-15.06Z"/>
    <path class="cls-4" d="M634.55,26.27c9.73,0,17.51,3.16,23.33,9.48,5.83,6.32,8.75,15,8.75,26.04v48.65h-25.38v-45.21c0-5.58-1.45-9.92-4.33-13-2.89-3.08-6.77-4.63-11.65-4.63s-8.76,1.54-11.65,4.63c-2.88,3.08-4.31,7.42-4.31,13v45.21h-25.52V27.17h25.52v11.04c2.58-3.68,6.06-6.59,10.44-8.73,4.39-2.14,9.32-3.21,14.79-3.21Z"/>
    <path class="cls-4" d="M730.79,88.79v21.65h-12.98c-9.27,0-16.48-2.26-21.65-6.79-5.17-4.53-7.75-11.92-7.75-22.17v-33.13h-10.17v-21.19h10.17V6.88h25.5v20.29h16.73v21.19h-16.73v33.44c0,2.49.59,4.28,1.79,5.38,1.19,1.08,3.19,1.63,5.98,1.63h9.1Z"/>
    <path class="cls-1" d="M770.49,38.96c2.48-3.88,5.92-7.01,10.29-9.4,4.38-2.39,9.5-3.58,15.38-3.58,6.86,0,13.07,1.74,18.65,5.23,5.58,3.47,9.98,8.45,13.21,14.92,3.23,6.46,4.85,13.97,4.85,22.52s-1.62,16.1-4.85,22.63c-3.22,6.52-7.63,11.54-13.21,15.06-5.57,3.53-11.79,5.29-18.65,5.29-5.77,0-10.86-1.19-15.29-3.58-4.43-2.39-7.89-5.47-10.38-9.25v51.33h-25.52V27.17h25.52v11.79ZM806.9,68.65c0-6.36-1.77-11.35-5.31-14.98-3.53-3.64-7.88-5.46-13.04-5.46s-9.39,1.84-12.92,5.52c-3.53,3.68-5.29,8.71-5.29,15.08s1.76,11.39,5.29,15.06c3.53,3.68,7.83,5.52,12.92,5.52s9.4-1.86,12.98-5.58c3.58-3.73,5.38-8.79,5.38-15.17Z"/>
    <path class="cls-1" d="M884.2,111.63c-8.17,0-15.51-1.73-22.02-5.21-6.52-3.48-11.64-8.46-15.38-14.92-3.72-6.47-5.58-14.03-5.58-22.69s1.89-16.09,5.67-22.6c3.78-6.53,8.94-11.53,15.5-15,6.57-3.48,13.94-5.23,22.1-5.23s15.51,1.74,22.08,5.23c6.57,3.47,11.74,8.47,15.52,15,3.78,6.52,5.67,14.05,5.67,22.6s-1.92,16.09-5.75,22.6c-3.82,6.52-9.04,11.52-15.67,15-6.61,3.47-13.99,5.21-22.15,5.21ZM884.2,89.54c4.86,0,9.01-1.79,12.44-5.38,3.44-3.58,5.17-8.7,5.17-15.35s-1.67-11.79-5-15.38-7.44-5.38-12.31-5.38-9.1,1.77-12.4,5.29c-3.28,3.53-4.92,8.68-4.92,15.46s1.61,11.77,4.85,15.35c3.23,3.58,7.29,5.38,12.17,5.38Z"/>
    <path class="cls-1" d="M966.86,41.04c2.98-4.57,6.71-8.17,11.19-10.81,4.48-2.64,9.46-3.96,14.94-3.96v27.02h-7.02c-6.38,0-11.16,1.37-14.33,4.1-3.18,2.74-4.77,7.54-4.77,14.4v38.65h-25.52V27.17h25.52v13.88Z"/>
    <path class="cls-1" d="M1000.14,68.81c0-8.67,1.76-16.23,5.29-22.69,3.53-6.47,8.45-11.44,14.77-14.92,6.32-3.48,13.55-5.23,21.71-5.23,10.44,0,19.17,2.74,26.19,8.21,7.01,5.47,11.61,13.18,13.81,23.13h-27.17c-2.29-6.36-6.72-9.54-13.27-9.54-4.68,0-8.42,1.81-11.21,5.44-2.78,3.63-4.17,8.83-4.17,15.6s1.39,11.97,4.17,15.6c2.79,3.63,6.53,5.44,11.21,5.44,6.55,0,10.98-3.19,13.27-9.56h27.17c-2.2,9.75-6.83,17.41-13.9,22.98-7.06,5.57-15.76,8.35-26.1,8.35-8.16,0-15.39-1.73-21.71-5.21-6.32-3.48-11.24-8.46-14.77-14.92-3.53-6.47-5.29-14.03-5.29-22.69Z"/>
    <path class="cls-1" d="M1146.67,26.27c9.55,0,17.21,3.16,22.98,9.48,5.78,6.32,8.67,15,8.67,26.04v48.65h-25.38v-45.21c0-5.58-1.45-9.92-4.33-13-2.89-3.08-6.77-4.63-11.65-4.63s-8.76,1.54-11.65,4.63c-2.88,3.08-4.31,7.42-4.31,13v45.21h-25.52V0h25.52v38.35c2.58-3.68,6.11-6.61,10.58-8.79,4.48-2.19,9.51-3.29,15.08-3.29Z"/>
    <path class="cls-4" d="M232.57,158.72v39.46h-9.1v-39.46h9.1Z"/>
    <path class="cls-4" d="M237.38,183.24c0-3.05.57-5.73,1.73-8.04,1.15-2.32,2.72-4.09,4.71-5.33,2-1.25,4.22-1.88,6.67-1.88,2.09,0,3.94.43,5.52,1.29,1.58.85,2.8,1.97,3.67,3.35v-4.21h9.13v29.75h-9.13v-4.21c-.89,1.39-2.13,2.51-3.71,3.35-1.58.85-3.43,1.27-5.52,1.27-2.42,0-4.63-.63-6.63-1.88-1.99-1.26-3.56-3.06-4.71-5.4-1.16-2.33-1.73-5.03-1.73-8.08ZM259.68,183.31c0-2.28-.64-4.07-1.9-5.4-1.27-1.32-2.81-1.98-4.63-1.98s-3.34.66-4.6,1.96c-1.27,1.29-1.9,3.08-1.9,5.35s.63,4.08,1.9,5.42c1.26,1.33,2.8,2,4.6,2s3.36-.65,4.63-1.96c1.26-1.32,1.9-3.11,1.9-5.4Z"/>
    <path class="cls-4" d="M293.53,168.1c3.48,0,6.27,1.14,8.35,3.4,2.08,2.25,3.13,5.35,3.13,9.29v17.4h-9.08v-16.17c0-1.98-.52-3.53-1.54-4.63-1.03-1.11-2.42-1.67-4.17-1.67s-3.13.56-4.17,1.67c-1.03,1.1-1.54,2.64-1.54,4.63v16.17h-9.1v-29.75h9.1v3.94c.93-1.32,2.17-2.36,3.73-3.13,1.57-.76,3.33-1.15,5.29-1.15Z"/>
    <path class="cls-4" d="M309.54,183.24c0-3.05.57-5.73,1.73-8.04,1.15-2.32,2.72-4.09,4.71-5.33,2-1.25,4.22-1.88,6.67-1.88,1.96,0,3.74.41,5.35,1.23,1.63.82,2.9,1.93,3.83,3.31v-13.81h9.13v39.46h-9.13v-4.27c-.86,1.43-2.08,2.57-3.67,3.42-1.58.85-3.43,1.27-5.52,1.27-2.45,0-4.67-.63-6.67-1.88-1.99-1.26-3.56-3.06-4.71-5.4-1.16-2.33-1.73-5.03-1.73-8.08ZM331.83,183.31c0-2.28-.64-4.07-1.9-5.4-1.27-1.32-2.81-1.98-4.63-1.98s-3.34.66-4.6,1.96c-1.27,1.29-1.9,3.08-1.9,5.35s.63,4.08,1.9,5.42c1.26,1.33,2.8,2,4.6,2s3.36-.65,4.63-1.96c1.26-1.32,1.9-3.11,1.9-5.4Z"/>
    <path class="cls-4" d="M356.66,158.72v39.46h-9.1v-39.46h9.1Z"/>
    <path class="cls-4" d="M376.83,198.6c-2.92,0-5.54-.61-7.88-1.85-2.32-1.25-4.15-3.03-5.48-5.33-1.33-2.32-2-5.02-2-8.1s.67-5.75,2.02-8.08c1.34-2.33,3.19-4.11,5.54-5.35,2.34-1.25,4.98-1.88,7.9-1.88s5.55.63,7.9,1.88c2.34,1.24,4.19,3.02,5.54,5.35,1.34,2.33,2.02,5.03,2.02,8.08s-.69,5.75-2.06,8.08c-1.36,2.32-3.22,4.1-5.58,5.35-2.36,1.24-5,1.85-7.92,1.85ZM376.83,190.72c1.73,0,3.21-.64,4.44-1.92,1.23-1.29,1.85-3.13,1.85-5.5s-.6-4.22-1.79-5.5c-1.18-1.28-2.65-1.92-4.4-1.92s-3.26.64-4.44,1.9c-1.17,1.27-1.75,3.1-1.75,5.52s.57,4.21,1.73,5.5c1.17,1.28,2.61,1.92,4.35,1.92Z"/>
    <path class="cls-4" d="M406.36,173.39c1.07-1.64,2.4-2.93,4-3.88,1.61-.94,3.39-1.42,5.33-1.42v9.67h-2.5c-2.28,0-3.99.49-5.13,1.46-1.14.97-1.71,2.69-1.71,5.15v13.81h-9.1v-29.75h9.1v4.96Z"/>
    <path class="cls-4" d="M418.27,183.24c0-3.05.57-5.73,1.73-8.04,1.15-2.32,2.72-4.09,4.71-5.33,2-1.25,4.22-1.88,6.67-1.88,1.96,0,3.74.41,5.35,1.23,1.63.82,2.9,1.93,3.83,3.31v-13.81h9.13v39.46h-9.13v-4.27c-.86,1.43-2.08,2.57-3.67,3.42-1.58.85-3.43,1.27-5.52,1.27-2.45,0-4.67-.63-6.67-1.88-1.99-1.26-3.56-3.06-4.71-5.4-1.16-2.33-1.73-5.03-1.73-8.08ZM440.56,183.31c0-2.28-.64-4.07-1.9-5.4-1.27-1.32-2.81-1.98-4.63-1.98s-3.34.66-4.6,1.96c-1.27,1.29-1.9,3.08-1.9,5.35s.63,4.08,1.9,5.42c1.26,1.33,2.8,2,4.6,2s3.36-.65,4.63-1.96c1.26-1.32,1.9-3.11,1.9-5.4Z"/>
    <rect class="cls-1" x="464.74" y="158.72" width="713.58" height="39.88"/>
  </g>
</svg>